<svg id="_0" data-name="0" xmlns="http://www.w3.org/2000/svg" viewBox="0 0 433.88 481.8"><defs><style>.cls-1{fill:#991a0c;}.cls-2{fill:#c52110;}.cls-3{fill:#ad1e0e;}.cls-4{fill:none;stroke:#000;stroke-linecap:round;stroke-linejoin:round;stroke-width:2.5px;}</style></defs><title>FoxyPrime-SVG1</title><g id="LINE"><polygon class="cls-1" points="432.63 133.06 432.63 216.93 306.81 370.71 306.81 232.91 336.77 214.94 336.77 196.96 432.63 133.06"/><polygon class="cls-1" points="127.07 232.91 127.07 370.71 1.25 216.93 1.25 133.06 97.11 196.96 97.11 214.94 127.07 232.91"/><polygon class="cls-2" points="432.63 1.25 432.63 133.06 336.77 196.96 252.89 208.95 252.89 125.07 270.86 109.09 324.78 109.09 432.63 1.25"/><polygon class="cls-2" points="306.81 232.91 306.81 370.71 264.87 421.97 246.9 378.7 186.98 378.7 169.01 421.97 127.07 370.71 127.07 232.91 180.99 208.95 180.99 336.76 252.89 336.76 252.89 208.95 306.81 232.91"/><polygon class="cls-2" points="180.99 125.07 180.99 208.95 97.11 196.96 1.25 133.06 1.25 1.25 109.1 109.09 163.02 109.09 180.99 125.07"/><polygon class="cls-3" points="252.89 208.95 252.89 336.76 180.99 336.76 180.99 208.95 180.99 125.07 216.94 157.02 252.89 125.07 252.89 208.95"/><polygon class="cls-3" points="246.9 378.7 264.87 421.97 216.94 480.55 169.01 421.97 186.98 378.7 246.9 378.7"/><polygon class="cls-1" points="270.86 109.09 252.89 125.07 216.94 157.02 180.99 125.07 163.02 109.09 270.86 109.09"/><line class="cls-4" x1="1.25" y1="133.06" x2="1.25" y2="216.93"/><line class="cls-4" x1="1.25" y1="216.93" x2="127.07" y2="370.71"/><line class="cls-4" x1="127.07" y1="232.91" x2="97.11" y2="214.94"/><line class="cls-4" x1="97.11" y1="214.94" x2="97.11" y2="196.96"/><line class="cls-4" x1="336.77" y1="196.96" x2="336.77" y2="214.94"/><line class="cls-4" x1="336.77" y1="214.94" x2="306.81" y2="232.91"/><line class="cls-4" x1="306.81" y1="370.71" x2="432.63" y2="216.93"/><line class="cls-4" x1="432.63" y1="216.93" x2="432.63" y2="133.06"/><line class="cls-4" x1="252.89" y1="208.95" x2="336.77" y2="196.96"/><line class="cls-4" x1="336.77" y1="196.96" x2="432.63" y2="133.06"/><line class="cls-4" x1="432.63" y1="133.06" x2="432.63" y2="1.25"/><line class="cls-4" x1="432.63" y1="1.25" x2="324.78" y2="109.09"/><line class="cls-4" x1="324.78" y1="109.09" x2="270.86" y2="109.09"/><line class="cls-4" x1="163.02" y1="109.09" x2="109.1" y2="109.09"/><line class="cls-4" x1="109.1" y1="109.09" x2="1.25" y2="1.25"/><line class="cls-4" x1="1.25" y1="1.25" x2="1.25" y2="133.06"/><line class="cls-4" x1="1.25" y1="133.06" x2="97.11" y2="196.96"/><line class="cls-4" x1="97.11" y1="196.96" x2="180.99" y2="208.95"/><line class="cls-4" x1="264.87" y1="421.97" x2="306.81" y2="370.71"/><line class="cls-4" x1="306.81" y1="370.71" x2="306.81" y2="232.91"/><line class="cls-4" x1="306.81" y1="232.91" x2="252.89" y2="208.95"/><line class="cls-4" x1="180.99" y1="208.95" x2="127.07" y2="232.91"/><line class="cls-4" x1="127.07" y1="232.91" x2="127.07" y2="370.71"/><line class="cls-4" x1="127.07" y1="370.71" x2="169.01" y2="421.97"/><polyline class="cls-4" points="180.99 125.07 180.99 208.95 180.99 336.76"/><line class="cls-4" x1="180.99" y1="336.76" x2="252.89" y2="336.76"/><polyline class="cls-4" points="252.89 336.76 252.89 208.95 252.89 125.07"/><line class="cls-4" x1="270.86" y1="109.09" x2="163.02" y2="109.09"/><polyline class="cls-4" points="163.02 109.09 180.99 125.07 216.94 157.02"/><polyline class="cls-4" points="216.94 157.02 252.89 125.07 270.86 109.09"/><line class="cls-4" x1="216.94" y1="480.55" x2="264.87" y2="421.97"/><line class="cls-4" x1="264.87" y1="421.97" x2="246.9" y2="378.7"/><line class="cls-4" x1="246.9" y1="378.7" x2="186.98" y2="378.7"/><line class="cls-4" x1="186.98" y1="378.7" x2="169.01" y2="421.97"/><line class="cls-4" x1="169.01" y1="421.97" x2="216.94" y2="480.55"/></g></svg>